# xmcd
#
# Track frame offsets:
#	150
#	18140
#	30942
#	51503
#	71133
#	89136
#	103612
#	122842
#	139683
#	152805
#	172083
#	186879
#	192439
#	210817
#	254206
#	282539
#	306171
#
# Disc length: 4340 seconds
#
# Revision: 1
# Processed by: cddbd v1.5PL3 Copyright (c) Steve Scherf et al.
# Submitted via: audiograbber 1.82.01
#
DISCID=0110f211
DTITLE=Jimi Hendrix - "Villanova Junction" - Disc 2
DYEAR=1900
DGENRE=
TTITLE0=Jimi Hendrix - Freedom
TTITLE1=Jimi Hendrix - Lover Man
TTITLE2=Jimi Hendrix - Valleys Of Neptune (Inst)
TTITLE3=Jimi Hendrix - Freedom (Inst)
TTITLE4=Jimi Hendrix - Dolly Dagger
TTITLE5=Jimi Hendrix - Bleeding Heart
TTITLE6=Jimi Hendrix - Earth Blues
TTITLE7=Jimi Hendrix - Ezy Ryder
TTITLE8=Jimi Hendrix - Izabella
TTITLE9=Jimi Hendrix - Ezy Ryder
TTITLE10=Jimi Hendrix - Room Full Of Mirrors
TTITLE11=Jimi Hendrix - Backward Experiment
TTITLE12=Jimi Hendrix - Send My Love To Linda (3)
TTITLE13=Jimi Hendrix - Ezy Ryder Jam
TTITLE14=Jimi Hendrix - Mlk-Cherokee Mist
TTITLE15=Jimi Hendrix - Untitled Guitar Improvisation
TTITLE16=Jimi Hendrix - Midnight Lightning
EXTD=
EXTT0=
EXTT1=
EXTT2=
EXTT3=
EXTT4=
EXTT5=
EXTT6=
EXTT7=
EXTT8=
EXTT9=
EXTT10=
EXTT11=
EXTT12=
EXTT13=
EXTT14=
EXTT15=
EXTT16=
PLAYORDER=
